<svg xmlns="http://www.w3.org/2000/svg" width="21.22" height="20.594"><path data-name="Shape 1 copy" d="M18.38 20.225a1.221 1.221 0 0 0 1.74 0 1.235 1.235 0 0 0 0-1.758L9.25 7.525a4.5 4.5 0 0 0-1.2-4.719C5.43.172 2.13-.784.69.672s-.5 4.774 2.12 7.409a4.415 4.415 0 0 0 4.69 1.2zm-17.3-1.757a1.235 1.235 0 0 0 0 1.758 1.222 1.222 0 0 0 1.74 0l7.03-7.069-1.75-1.759zm12.84-9.406a1.413 1.413 0 0 0 2 0l5.12-5.15a.548.548 0 0 0 0-.753.53.53 0 0 0-.75 0l-3.25 3.264a.519.519 0 0 1-.74 0 .538.538 0 0 1-.01-.753l3.25-3.265a.548.548 0 0 0 0-.753.531.531 0 0 0-.75 0l-3.24 3.264a.531.531 0 0 1-.75-.753L18.04.898a.532.532 0 0 0-.75-.754l-5.11 5.15a1.429 1.429 0 0 0 0 2.009l-.83.831 1.75 1.758z" fill="#040001" fill-rule="evenodd"/></svg>