<svg xmlns="http://www.w3.org/2000/svg" width="21.22" height="20.594" viewBox="0 0 21.22 20.594">
  <defs>
    <style>
      .cls-1 {
        fill: #040001;
        fill-rule: evenodd;
      }
    </style>
  </defs>
  <path id="Shape_1_copy" data-name="Shape 1 copy" class="cls-1" d="M2571.47,652.1a1.221,1.221,0,0,0,1.74,0,1.235,1.235,0,0,0,0-1.758L2562.34,639.4a4.5,4.5,0,0,0-1.2-4.719c-2.62-2.634-5.92-3.59-7.36-2.134s-0.5,4.774,2.12,7.409a4.415,4.415,0,0,0,4.69,1.2Zm-17.3-1.757a1.235,1.235,0,0,0,0,1.758,1.222,1.222,0,0,0,1.74,0l7.03-7.069-1.75-1.759Zm12.84-9.406a1.413,1.413,0,0,0,2,0l5.12-5.15a0.548,0.548,0,0,0,0-.753,0.53,0.53,0,0,0-.75,0l-3.25,3.264a0.519,0.519,0,0,1-.74,0,0.538,0.538,0,0,1-.01-0.753l3.25-3.265a0.548,0.548,0,0,0,0-.753,0.531,0.531,0,0,0-.75,0l-3.24,3.264a0.531,0.531,0,0,1-.75-0.753l3.24-3.265a0.532,0.532,0,0,0-.75-0.754l-5.11,5.15a1.429,1.429,0,0,0,0,2.009l-0.83.831,1.75,1.758Z" transform="translate(-2553.09 -631.875)"/>
</svg>
